<svg width="439" height="476" viewBox="0 0 439 476" fill="none" xmlns="http://www.w3.org/2000/svg">
<g style="mix-blend-mode:hard-light">
<path d="M391.686 51.2408C391.686 51.2408 389.553 34.1652 379.752 30.2733C369.951 26.3814 358.622 45.8342 359.858 38.3153C361.094 30.7963 375.262 25.546 375.262 25.546C375.262 25.546 374.665 20.5198 360.333 16.1524C346.002 11.7918 338.924 38.0775 338.924 38.0775C293.749 41.4668 316.109 68.9683 319.641 70.9516C323.173 72.935 333.721 55.1259 334.944 57.5167C336.167 59.9008 325.571 67.1752 323.282 73.981C320.993 80.7867 334.577 96.7211 340.045 97.8554C345.513 98.9897 341.403 76.7114 346.497 79.666C351.592 82.6206 336.092 100.375 355.993 106.162C375.894 111.949 373.218 111.908 364.694 97.0608C356.17 82.2199 367.173 74.9862 367.186 83.6666C367.241 115.787 397.907 110.706 397.907 110.706C403.477 75.5024 373.782 75.4956 376.261 71.8142C378.733 68.1397 399.687 89.1071 397.88 81.8327C396.074 74.5583 405.372 70.1026 398.519 59.8668C391.659 49.631 367.526 56.9666 368.606 49.2507C369.686 41.5348 391.686 51.234 391.686 51.234V51.2408ZM343.502 71.2709C341.92 76.8201 338.028 79.8901 335.705 77.7914C333.382 75.6926 339.291 65.9526 339.291 65.9526C342.551 63.3037 345.091 65.7217 343.502 71.2709ZM373.442 62.509C366.888 64.1866 364.476 63.3172 362.717 61.9045C362.717 61.9045 367.757 57.5099 372.233 58.651C376.716 59.7921 379.996 60.8245 373.442 62.509ZM354.145 35.2316C351.266 37.6157 348.909 40.8963 347.632 37.7583C347.632 37.7583 348.481 31.3193 352.393 30.7216C356.312 30.1239 357.025 32.8476 354.145 35.2316Z" fill="#55B76B"/>
<path d="M316.789 -4C316.789 -4 331.147 42.8796 392.711 104.41" stroke="#333333" stroke-width="0.5" stroke-linecap="round" stroke-linejoin="round"/>
</g>
<path d="M435.969 80.5427C436.821 79.2148 437.329 77.9953 437.631 76.8706C437.631 76.8706 437.631 76.8977 437.631 76.9112C437.673 76.7486 437.686 76.6131 437.728 76.4505C437.783 76.2337 437.837 76.0033 437.865 75.7865C437.892 75.5968 437.892 75.4071 437.92 75.2174C437.947 74.7838 437.947 74.3502 437.92 73.9572C437.92 73.8217 437.92 73.6862 437.892 73.5643C437.865 73.3475 437.81 73.1578 437.769 72.9545C437.741 72.819 437.714 72.67 437.673 72.548C437.618 72.3583 437.549 72.1821 437.48 71.9924C437.425 71.8705 437.384 71.735 437.329 71.613C437.247 71.4369 437.178 71.2743 437.082 71.1117C437.027 70.9897 436.958 70.8813 436.889 70.7729C436.793 70.6239 436.711 70.4612 436.601 70.3257C436.532 70.2309 436.463 70.136 436.395 70.0412C436.285 69.9057 436.188 69.7566 436.079 69.6346C436.01 69.5533 435.955 69.4992 435.886 69.4179C435.653 69.1604 435.433 68.93 435.199 68.7132C435.144 68.659 435.075 68.6048 435.02 68.5506C434.91 68.4558 434.814 68.3745 434.704 68.2932C434.636 68.239 434.553 68.1712 434.485 68.117C434.388 68.0492 434.306 67.9815 434.21 67.9137C434.141 67.8595 434.059 67.8054 433.99 67.7647C433.907 67.7105 433.839 67.6698 433.77 67.6156C433.701 67.575 433.646 67.5343 433.578 67.4937C433.523 67.453 433.468 67.4259 433.426 67.3988C433.371 67.3582 433.33 67.3446 433.275 67.3175C433.248 67.304 433.22 67.2904 433.193 67.2769C433.138 67.2498 433.11 67.2362 433.11 67.2362C440.572 63.0898 439.418 60.8133 437.81 55.759C437.673 55.339 437.535 54.9053 437.411 54.4446C436.656 51.8836 436.669 50.4202 436.848 49.2548C436.944 48.5909 437.095 48.0217 437.205 47.412C437.205 47.3442 437.233 47.2629 437.247 47.1951C437.247 47.1003 437.274 47.019 437.274 46.9242C437.274 46.8293 437.288 46.7345 437.302 46.6261C437.302 46.5447 437.302 46.4499 437.302 46.3686C437.302 46.2466 437.302 46.1247 437.302 46.0027C437.302 45.9214 437.302 45.8266 437.302 45.7453C437.302 45.5962 437.274 45.4471 437.26 45.2845C437.26 45.2032 437.247 45.1219 437.233 45.0406C437.233 45.0271 437.233 45 437.233 44.9865C437.192 44.7561 437.15 44.5122 437.082 44.2412C436.463 41.6124 431.846 43.3333 427.545 47.7643C427.119 48.2114 426.693 48.6722 426.267 49.1735C425.429 50.1627 424.618 51.2603 423.876 52.4392C423.505 53.0354 423.148 53.6452 422.818 54.282C422.653 54.5937 422.488 54.9189 422.337 55.2441C421.87 56.2197 421.444 57.2496 421.1 58.3201V58.3472C420.935 58.835 420.784 59.2821 420.633 59.7293C420.592 59.8377 420.564 59.9461 420.523 60.0545C420.372 60.4746 420.234 60.8811 420.097 61.274C420.069 61.3418 420.056 61.4095 420.028 61.4637C419.905 61.8025 419.781 62.1277 419.671 62.4394C419.643 62.5071 419.616 62.5884 419.588 62.6562C419.465 62.9949 419.341 63.3066 419.217 63.6047C419.19 63.6725 419.163 63.7402 419.135 63.808C419.025 64.0654 418.915 64.3229 418.819 64.5532C418.805 64.5939 418.791 64.621 418.778 64.6617C418.668 64.9191 418.558 65.1495 418.462 65.3663C418.434 65.4205 418.407 65.4747 418.379 65.5289C418.283 65.7457 418.187 65.9489 418.091 66.1251C418.091 66.1522 418.077 66.1657 418.063 66.1793C417.981 66.3419 417.898 66.5045 417.816 66.64C417.802 66.6807 417.775 66.7213 417.761 66.7484C417.678 66.8975 417.596 67.033 417.527 67.1549C417.514 67.182 417.5 67.2091 417.472 67.2362C417.404 67.3446 417.349 67.4395 417.28 67.5208C417.28 67.5343 417.252 67.5614 417.239 67.575C417.17 67.6698 417.115 67.7511 417.046 67.8324C417.033 67.846 417.019 67.8731 417.005 67.8867C416.95 67.9544 416.895 68.0221 416.84 68.0763C416.785 68.1305 416.73 68.1848 416.689 68.2254C416.689 68.2254 416.675 68.239 416.662 68.2525C416.62 68.2932 416.579 68.3203 416.538 68.3474C416.497 68.3745 416.469 68.388 416.428 68.4016C416.4 68.4016 416.359 68.4287 416.332 68.4287C416.236 68.4422 416.181 68.4016 416.167 68.4016C416.579 67.7918 416.73 67.0194 416.497 66.2742C416.304 65.6508 415.878 65.163 415.342 64.8513C416.593 63.0762 418.434 59.9461 418.517 56.7482C418.517 56.5314 418.352 56.3552 418.132 56.3552C417.912 56.3552 417.733 56.5178 417.733 56.7347C417.651 59.797 415.782 62.9001 414.587 64.5668C414.174 64.4719 413.735 64.4719 413.295 64.6074C412.759 64.77 412.319 65.0953 412.003 65.5018C410.12 64.8243 406.589 63.2659 404.706 60.6643C404.583 60.4881 404.335 60.4475 404.157 60.5694C403.978 60.6914 403.937 60.9353 404.06 61.1115C406.053 63.8622 409.612 65.4747 411.618 66.1929C411.44 66.6807 411.412 67.2227 411.577 67.7647C411.811 68.51 412.374 69.0655 413.061 69.3501C413.061 69.3772 413.047 69.4179 413.034 69.445C413.034 69.445 413.034 69.445 413.02 69.445C412.979 69.445 412.938 69.4585 412.883 69.4585C412.869 69.4585 412.855 69.4585 412.828 69.4585C412.786 69.4585 412.731 69.4585 412.663 69.4585C412.635 69.4585 412.608 69.4585 412.566 69.445C412.512 69.445 412.443 69.4179 412.36 69.4043C412.319 69.4043 412.292 69.3908 412.25 69.3772C412.154 69.3501 412.058 69.3094 411.948 69.2688C411.921 69.2688 411.893 69.2553 411.866 69.2417C411.715 69.1875 411.563 69.1198 411.371 69.0385C411.33 69.0249 411.289 68.9978 411.247 68.9707C411.096 68.9029 410.945 68.8216 410.78 68.7403C410.711 68.6997 410.643 68.659 410.56 68.6184C410.395 68.5371 410.217 68.4286 410.038 68.3202C409.956 68.2796 409.887 68.2254 409.804 68.1848C409.557 68.0357 409.296 67.8867 409.021 67.7105C408.994 67.6969 408.966 67.6698 408.925 67.6563C408.609 67.453 408.265 67.2362 407.894 66.9923C407.798 66.9246 407.702 66.8568 407.606 66.7891C407.331 66.5994 407.029 66.3961 406.726 66.1793C406.589 66.0844 406.451 65.9896 406.314 65.8812C406.012 65.6644 405.682 65.4205 405.352 65.1766C405.215 65.0682 405.077 64.9733 404.926 64.8649C404.431 64.499 403.923 64.1196 403.373 63.6996C400.68 61.6399 397.698 60.2036 394.84 59.2821C393.892 58.9705 392.943 58.7266 392.036 58.5369C391.459 58.4149 390.91 58.3201 390.36 58.2388C390.03 58.1846 389.714 58.1439 389.398 58.1168C384.643 57.6154 381.29 58.7537 382.129 60.8946C382.239 61.1656 382.349 61.4095 382.458 61.6399C382.5 61.7212 382.541 61.789 382.568 61.8567C382.637 61.9922 382.72 62.1413 382.788 62.2632C382.829 62.3445 382.884 62.4123 382.926 62.4936C382.994 62.602 383.063 62.6968 383.132 62.7917C383.187 62.8594 383.242 62.9407 383.297 63.0085C383.365 63.0898 383.42 63.1575 383.489 63.2388C383.544 63.3066 383.613 63.3744 383.668 63.4421C383.723 63.4963 383.764 63.5505 383.819 63.6047C384.259 64.0519 384.698 64.4448 385.166 64.9326C385.976 65.7999 386.815 67.0059 387.639 69.5398C387.79 70.0005 387.928 70.4341 388.051 70.8542C389.604 75.9356 389.934 78.456 398.481 77.7649C398.481 77.7649 398.481 77.792 398.454 77.8327C398.426 77.8733 398.399 77.941 398.358 78.0223C398.358 78.0223 398.358 78.0224 398.358 78.0359C397.987 78.8218 397.011 81.1661 397.533 83.7948C397.945 85.9087 399.347 88.1987 402.837 89.9467C403.126 90.0822 403.415 90.2313 403.731 90.3668C404.047 90.5023 404.349 90.6107 404.651 90.7056C404.651 90.7056 404.651 90.7056 404.665 90.7056C404.954 90.8004 405.242 90.8682 405.531 90.9088C413.226 92.2367 415.48 78.6592 415.81 76.3557L418.723 84.5807C418.86 84.9737 419.3 85.1905 419.698 85.0686C420.111 84.9466 420.344 84.5265 420.234 84.12L417.83 75.4207C417.83 75.4207 429.428 88.7407 435.419 81.4235C435.419 81.4235 435.433 81.41 435.446 81.3964C435.639 81.1525 435.831 80.895 436.024 80.6105L435.969 80.5427Z" fill="#55B76B"/>
<g filter="url(#filter0_d_202_237)">
<path d="M118.988 374.076C113.834 491.076 42.5247 460.521 42.5247 460.521C42.5247 460.521 3.49169 393.477 118.988 374.076Z" fill="#43AB5F"/>
</g>
<path d="M118.988 374.075L42.5246 460.52C42.5246 460.52 113.83 491.073 118.988 374.075Z" fill="#3C9B61"/>
<g filter="url(#filter1_d_202_237)">
<path d="M24.7833 385.54C89.2415 434.713 43.6912 463.163 43.6912 463.163C43.6912 463.163 -9.83965 458.849 24.7833 385.54Z" fill="#43AB5F"/>
</g>
<path d="M24.7834 385.54L43.6912 463.164C43.6912 463.164 89.2386 434.714 24.7834 385.54Z" fill="#3C9B61"/>
<g filter="url(#filter2_d_202_237)">
<path d="M38.372 61.7566C43.4591 63.1041 47.9637 66.234 51.0043 70.5328C58.8058 81.5691 53.6022 93.8985 48.7637 99.902C43.0708 106.966 29.8987 110.1 25.1961 110.647C20.4973 111.195 19.8022 113.89 19.8022 113.89L14.2141 110.006L8.62611 106.123C8.62611 106.123 10.9095 104.531 9.78332 99.937C8.65717 95.3392 6.99901 81.8991 11.6318 74.1015C15.5694 67.4728 25.3126 58.2927 38.3759 61.7566H38.372Z" fill="white"/>
<path d="M19.8017 113.893L15.4563 120.145C13.6079 122.806 9.96537 123.477 7.32474 121.641L5.7093 120.518C3.06867 118.681 2.42405 115.039 4.27249 112.375L8.61787 106.123L19.8017 113.893Z" fill="#B1D000"/>
<path d="M5.76976 109.449L18.2058 117.13C18.4904 117.306 18.8637 117.218 19.0395 116.933L19.3395 116.447C19.5153 116.163 19.427 115.789 19.1424 115.614L6.70637 107.933C6.42172 107.757 6.04844 107.845 5.87263 108.13L5.57267 108.616C5.39686 108.9 5.4851 109.274 5.76976 109.449Z" fill="#5B9739"/>
<path d="M3.89966 112.598L15.8269 119.964C16.1115 120.14 16.4848 120.052 16.6606 119.767L16.9606 119.282C17.1364 118.997 17.0481 118.624 16.7635 118.448L4.83627 111.081C4.55162 110.906 4.17834 110.994 4.00253 111.278L3.70257 111.764C3.52677 112.049 3.61501 112.422 3.89966 112.598Z" fill="#5B9739"/>
<path d="M2.51539 115.862L13.5373 122.67C13.822 122.846 14.1953 122.757 14.3711 122.473L14.671 121.987C14.8468 121.702 14.7586 121.329 14.4739 121.153L3.452 114.346C3.16734 114.17 2.79407 114.258 2.61826 114.543L2.3183 115.029C2.14249 115.313 2.23073 115.687 2.51539 115.862Z" fill="#5B9739"/>
<path d="M18.4658 96.6362C17.2736 93.0092 14.233 80.3303 26.8303 72.6259C27.3041 72.3385 27.9215 72.5288 28.1351 73.0414C29.6302 76.5752 33.7969 89.3823 19.7589 97.1372C19.2618 97.4129 18.6366 97.176 18.4619 96.6362H18.4658Z" fill="#B1D000"/>
<path d="M14.2095 110.01C14.2095 110.01 17.7044 102.733 19.1645 96.5158L27.366 73.686" stroke="#5B9739" stroke-width="0.5" stroke-miterlimit="10" stroke-linecap="round"/>
<path d="M27.934 78.078C27.934 78.078 24.9478 81.3944 23.9575 83.1612" stroke="#5B9739" stroke-width="0.5" stroke-miterlimit="10" stroke-linecap="round"/>
<path d="M21.8174 79.7012C21.8174 79.7012 23.4289 83.5379 22.4814 87.2193" stroke="#5B9739" stroke-width="0.5" stroke-miterlimit="10" stroke-linecap="round"/>
<path d="M27.6543 86.6755C27.6543 86.6755 23.2895 87.7124 21.2236 90.8501" stroke="#5B9739" stroke-width="0.5" stroke-miterlimit="10" stroke-linecap="round"/>
<path d="M19.3828 86.2173C19.3828 86.2173 20.9944 90.0539 20.0469 93.7353" stroke="#5B9739" stroke-width="0.5" stroke-miterlimit="10" stroke-linecap="round"/>
<path d="M20.7183 99.2421C22.7299 97.3509 30.1198 91.4794 39.0202 97.3897C39.3542 97.6111 39.4163 98.0771 39.1484 98.3722C37.2883 100.434 30.1625 107.079 20.7882 100.244C20.4582 100.003 20.4193 99.5216 20.7183 99.2382V99.2421Z" fill="#B1D000"/>
<path d="M38.4883 98.0614L21.0097 99.6614C21.0097 99.6614 19.1535 99.6808 16.2061 105.506" stroke="#5B9739" stroke-width="0.5" stroke-miterlimit="10" stroke-linecap="round"/>
<path d="M35.7817 99.7739C35.7817 99.7739 32.6945 98.8303 31.2344 98.7216" stroke="#5B9739" stroke-width="0.5" stroke-miterlimit="10" stroke-linecap="round"/>
<path d="M32.8461 96.2634C32.8461 96.2634 30.8229 98.4924 28.1201 98.9972" stroke="#5B9739" stroke-width="0.5" stroke-miterlimit="10" stroke-linecap="round"/>
<path d="M30.0576 102.22C30.0576 102.22 28.0422 99.6727 25.355 99.2805" stroke="#5B9739" stroke-width="0.5" stroke-miterlimit="10" stroke-linecap="round"/>
<path d="M27.829 96.6555C27.829 96.6555 25.8058 98.8845 23.103 99.3893" stroke="#5B9739" stroke-width="0.5" stroke-miterlimit="10" stroke-linecap="round"/>
<path d="M46.9654 95.6966C45.7888 97.246 44.3015 98.7954 42.4414 100.318" stroke="#5B9739" stroke-width="0.5" stroke-miterlimit="10" stroke-linecap="round"/>
<path d="M50.4142 88.6832C49.9676 90.4617 49.2143 92.2985 48.0415 94.1469" stroke="#5B9739" stroke-width="0.5" stroke-miterlimit="10" stroke-linecap="round"/>
<path d="M48.1499 73.7597C48.1499 73.7597 51.2876 77.6158 50.9148 85.2775" stroke="#5B9739" stroke-width="0.5" stroke-miterlimit="10" stroke-linecap="round"/>
<path d="M46.853 79.441C47.2996 81.3593 47.4122 83.5495 46.9307 85.9804" stroke="#5B9739" stroke-width="0.5" stroke-miterlimit="10" stroke-linecap="round"/>
<path d="M41.2959 70.4281C41.2959 70.4281 43.688 72.292 45.4355 75.6433" stroke="#5B9739" stroke-width="0.5" stroke-miterlimit="10" stroke-linecap="round"/>
</g>
<defs>
<filter id="filter0_d_202_237" x="33.1758" y="371.076" width="102.812" height="110.042" filterUnits="userSpaceOnUse" color-interpolation-filters="sRGB">
<feFlood flood-opacity="0" result="BackgroundImageFix"/>
<feColorMatrix in="SourceAlpha" type="matrix" values="0 0 0 0 0 0 0 0 0 0 0 0 0 0 0 0 0 0 127 0" result="hardAlpha"/>
<feOffset dx="7" dy="7"/>
<feGaussianBlur stdDeviation="5"/>
<feColorMatrix type="matrix" values="0 0 0 0 0 0 0 0 0 0 0 0 0 0 0 0 0 0 0.2 0"/>
<feBlend mode="normal" in2="BackgroundImageFix" result="effect1_dropShadow_202_237"/>
<feBlend mode="normal" in="SourceGraphic" in2="effect1_dropShadow_202_237" result="shape"/>
</filter>
<filter id="filter1_d_202_237" x="10.126" y="382.54" width="66.1875" height="97.6239" filterUnits="userSpaceOnUse" color-interpolation-filters="sRGB">
<feFlood flood-opacity="0" result="BackgroundImageFix"/>
<feColorMatrix in="SourceAlpha" type="matrix" values="0 0 0 0 0 0 0 0 0 0 0 0 0 0 0 0 0 0 127 0" result="hardAlpha"/>
<feOffset dx="7" dy="7"/>
<feGaussianBlur stdDeviation="5"/>
<feColorMatrix type="matrix" values="0 0 0 0 0 0 0 0 0 0 0 0 0 0 0 0 0 0 0.2 0"/>
<feBlend mode="normal" in2="BackgroundImageFix" result="effect1_dropShadow_202_237"/>
<feBlend mode="normal" in="SourceGraphic" in2="effect1_dropShadow_202_237" result="shape"/>
</filter>
<filter id="filter2_d_202_237" x="0.228027" y="60" width="68.772" height="77.7603" filterUnits="userSpaceOnUse" color-interpolation-filters="sRGB">
<feFlood flood-opacity="0" result="BackgroundImageFix"/>
<feColorMatrix in="SourceAlpha" type="matrix" values="0 0 0 0 0 0 0 0 0 0 0 0 0 0 0 0 0 0 127 0" result="hardAlpha"/>
<feOffset dx="6" dy="7"/>
<feGaussianBlur stdDeviation="4"/>
<feComposite in2="hardAlpha" operator="out"/>
<feColorMatrix type="matrix" values="0 0 0 0 0 0 0 0 0 0 0 0 0 0 0 0 0 0 0.25 0"/>
<feBlend mode="normal" in2="BackgroundImageFix" result="effect1_dropShadow_202_237"/>
<feBlend mode="normal" in="SourceGraphic" in2="effect1_dropShadow_202_237" result="shape"/>
</filter>
</defs>
</svg>
