<svg xmlns="http://www.w3.org/2000/svg" xmlns:xlink="http://www.w3.org/1999/xlink"
  style="display:none">

  <!-- home -->
  <symbol id="home">
    <path fill="currentColor"
      d="M11.336 2.253a1 1 0 0 1 1.328 0l9 8a1 1 0 0 1-1.328 1.494L20 11.45V19a2 2 0 0 1-2 2H6a2 2 0 0 1-2-2v-7.55l-.336.297a1 1 0 0 1-1.328-1.494zM6 9.67V19h3v-5a1 1 0 0 1 1-1h4a1 1 0 0 1 1 1v5h3V9.671l-6-5.333zM13 19v-4h-2v4z" />
  </symbol>

  <symbol id="arrowbottom">
    <path fill-rule="evenodd"
      d="M5.22 8.22a.75.75 0 0 1 1.06 0L10 11.94l3.72-3.72a.75.75 0 1 1 1.06 1.06l-4.25 4.25a.75.75 0 0 1-1.06 0L5.22 9.28a.75.75 0 0 1 0-1.06Z"
      clip-rule="evenodd" />
  </symbol>

  <symbol id="user">
    <g fill="none" stroke="currentColor" stroke-linecap="round" stroke-linejoin="round"
      stroke-width="2">
      <path d="M19 21v-2a4 4 0 0 0-4-4H9a4 4 0 0 0-4 4v2" />
      <circle cx="12" cy="7" r="4" />
    </g>
  </symbol>

  <symbol id="goout">
    <path fill="#DF3636"
      d="M5 21q-.825 0-1.412-.587T3 19V5q0-.825.588-1.412T5 3h6q.425 0 .713.288T12 4t-.288.713T11 5H5v14h6q.425 0 .713.288T12 20t-.288.713T11 21zm12.175-8H10q-.425 0-.712-.288T9 12t.288-.712T10 11h7.175L15.3 9.125q-.275-.275-.275-.675t.275-.7t.7-.313t.725.288L20.3 11.3q.3.3.3.7t-.3.7l-3.575 3.575q-.3.3-.712.288t-.713-.313q-.275-.3-.262-.712t.287-.688z" />
  </symbol>
  <symbol id="google">
    <path fill="#ffc107"
      d="M43.611 20.083H42V20H24v8h11.303c-1.649 4.657-6.08 8-11.303 8c-6.627 0-12-5.373-12-12s5.373-12 12-12c3.059 0 5.842 1.154 7.961 3.039l5.657-5.657C34.046 6.053 29.268 4 24 4C12.955 4 4 12.955 4 24s8.955 20 20 20s20-8.955 20-20c0-1.341-.138-2.65-.389-3.917" />
    <path fill="#ff3d00"
      d="m6.306 14.691l6.571 4.819C14.655 15.108 18.961 12 24 12c3.059 0 5.842 1.154 7.961 3.039l5.657-5.657C34.046 6.053 29.268 4 24 4C16.318 4 9.656 8.337 6.306 14.691" />
    <path fill="#4caf50"
      d="M24 44c5.166 0 9.86-1.977 13.409-5.192l-6.19-5.238A11.9 11.9 0 0 1 24 36c-5.202 0-9.619-3.317-11.283-7.946l-6.522 5.025C9.505 39.556 16.227 44 24 44" />
    <path fill="#1976d2"
      d="M43.611 20.083H42V20H24v8h11.303a12.04 12.04 0 0 1-4.087 5.571l.003-.002l6.19 5.238C36.971 39.205 44 34 44 24c0-1.341-.138-2.65-.389-3.917" />
  </symbol>
  <!-- ocultar contraseña -->
  <symbol id="eyeslash">
    <path fill="currentColor"
      d="M17.883 19.297A10.95 10.95 0 0 1 12 21c-5.392 0-9.878-3.88-10.818-9A11 11 0 0 1 4.52 5.935L1.394 2.808l1.414-1.414l19.799 19.798l-1.414 1.415zM5.936 7.35A8.97 8.97 0 0 0 3.223 12a9.005 9.005 0 0 0 13.201 5.838l-2.028-2.028A4.5 4.5 0 0 1 8.19 9.604zm6.978 6.978l-3.242-3.241a2.5 2.5 0 0 0 3.241 3.241m7.893 2.265l-1.431-1.431A8.9 8.9 0 0 0 20.778 12A9.005 9.005 0 0 0 9.552 5.338L7.974 3.76C9.221 3.27 10.58 3 12 3c5.392 0 9.878 3.88 10.819 9a10.95 10.95 0 0 1-2.012 4.593m-9.084-9.084Q11.86 7.5 12 7.5a4.5 4.5 0 0 1 4.492 4.778z" />
  </symbol>
  <!-- mostrar contraseña -->
  <symbol id="eye">
    <g fill="none" stroke="currentColor" stroke-width="1.5">
      <path
        d="M3.275 15.296C2.425 14.192 2 13.639 2 12c0-1.64.425-2.191 1.275-3.296C4.972 6.5 7.818 4 12 4s7.028 2.5 8.725 4.704C21.575 9.81 22 10.361 22 12c0 1.64-.425 2.191-1.275 3.296C19.028 17.5 16.182 20 12 20s-7.028-2.5-8.725-4.704Z" />
      <path d="M15 12a3 3 0 1 1-6 0a3 3 0 0 1 6 0Z" />
    </g>
  </symbol>

  <symbol id="alert">
    <g fill="none">
      <path
        d="m12.593 23.258l-.011.002l-.071.035l-.02.004l-.014-.004l-.071-.035q-.016-.005-.024.005l-.004.01l-.017.428l.005.02l.01.013l.104.074l.015.004l.012-.004l.104-.074l.012-.016l.004-.017l-.017-.427q-.004-.016-.017-.018m.265-.113l-.013.002l-.185.093l-.01.01l-.003.011l.018.43l.005.012l.008.007l.201.093q.019.005.029-.008l.004-.014l-.034-.614q-.005-.018-.02-.022m-.715.002a.02.02 0 0 0-.027.006l-.006.014l-.034.614q.001.018.017.024l.015-.002l.201-.093l.01-.008l.004-.011l.017-.43l-.003-.012l-.01-.01z" />
      <path fill="#ffc900"
        d="m13.299 3.148l8.634 14.954a1.5 1.5 0 0 1-1.299 2.25H3.366a1.5 1.5 0 0 1-1.299-2.25l8.634-14.954c.577-1 2.02-1 2.598 0M12 15a1 1 0 1 0 0 2a1 1 0 0 0 0-2m0-7a1 1 0 0 0-.993.883L11 9v4a1 1 0 0 0 1.993.117L13 13V9a1 1 0 0 0-1-1" />
    </g>
  </symbol>
  <symbol id="error">
    <path d="M10 0a10 10 0 1 0 10 10A10 10 0 0 0 10 0Zm1 15H9v-2h2Zm0-4H9V5h2Z" />
  </symbol>
  <symbol id="spinner">
    <defs>
      <linearGradient x1="0%" y1="100%" x2="100%" y2="100%" id="linearGradient-1">
        <stop stop-color="white" stop-opacity="0" offset="0%"></stop>
        <stop stop-color="white" stop-opacity="0.50" offset="39.9430698%"></stop>
        <stop stop-color="white" offset="100%"></stop>
      </linearGradient>
    </defs>
    <g stroke="none" stroke-width="1" fill="none" fill-rule="evenodd">
      <rect fill-opacity="0.01" fill="none" x="0" y="0" width="36" height="36"></rect>
      <path
        d="M34,18 C34,9.163444 26.836556,2 18,2 C11.6597233,2 6.18078805,5.68784135 3.59122325,11.0354951"
        stroke="url(#linearGradient-1)" stroke-width="4" stroke-linecap="round"></path>
    </g>
  </symbol>
  <symbol id="fire">
    <path fill="currentColor"
      d="M834.1 469.2A347.5 347.5 0 0 0 751.2 354l-29.1-26.7a8.09 8.09 0 0 0-13 3.3l-13 37.3c-8.1 23.4-23 47.3-44.1 70.8c-1.4 1.5-3 1.9-4.1 2s-2.8-.1-4.3-1.5c-1.4-1.2-2.1-3-2-4.8c3.7-60.2-14.3-128.1-53.7-202C555.3 171 510 123.1 453.4 89.7l-41.3-24.3c-5.4-3.2-12.3 1-12 7.3l2.2 48c1.5 32.8-2.3 61.8-11.3 85.9c-11 29.5-26.8 56.9-47 81.5a295.6 295.6 0 0 1-47.5 46.1a352.6 352.6 0 0 0-100.3 121.5A347.75 347.75 0 0 0 160 610c0 47.2 9.3 92.9 27.7 136a349.4 349.4 0 0 0 75.5 110.9c32.4 32 70 57.2 111.9 74.7C418.5 949.8 464.5 959 512 959s93.5-9.2 136.9-27.3A348.6 348.6 0 0 0 760.8 857c32.4-32 57.8-69.4 75.5-110.9a344.2 344.2 0 0 0 27.7-136c0-48.8-10-96.2-29.9-140.9M713 808.5c-53.7 53.2-125 82.4-201 82.4s-147.3-29.2-201-82.4c-53.5-53.1-83-123.5-83-198.4c0-43.5 9.8-85.2 29.1-124c18.8-37.9 46.8-71.8 80.8-97.9a349.6 349.6 0 0 0 58.6-56.8c25-30.5 44.6-64.5 58.2-101a240 240 0 0 0 12.1-46.5c24.1 22.2 44.3 49 61.2 80.4c33.4 62.6 48.8 118.3 45.8 165.7a74.01 74.01 0 0 0 24.4 59.8a73.36 73.36 0 0 0 53.4 18.8c19.7-1 37.8-9.7 51-24.4c13.3-14.9 24.8-30.1 34.4-45.6c14 17.9 25.7 37.4 35 58.4c15.9 35.8 24 73.9 24 113.1c0 74.9-29.5 145.4-83 198.4" />
  </symbol>
  <symbol id="fire2">
    <path fill="currentColor"
      d="M5.016 16c-1.066-2.219-.498-3.49.321-4.688c.897-1.312 1.129-2.61 1.129-2.61s.706.917.423 2.352c1.246-1.387 1.482-3.598 1.293-4.445c2.817 1.969 4.021 6.232 2.399 9.392c8.631-4.883 2.147-12.19 1.018-13.013c.376.823.448 2.216-.313 2.893C9.999 1.002 6.818.002 6.818.002c.376 2.516-1.364 5.268-3.042 7.324c-.059-1.003-.122-1.696-.649-2.656c-.118 1.823-1.511 3.309-1.889 5.135c-.511 2.473.383 4.284 3.777 6.197z" />
  </symbol>

  <symbol id="ubication">
<g fill="none" stroke="currentColor" stroke-linecap="round" stroke-linejoin="round" stroke-width="2"><circle cx="12" cy="10" r="3"/><path d="M12 2a8 8 0 0 0-8 8c0 1.892.402 3.13 1.5 4.5L12 22l6.5-7.5c1.098-1.37 1.5-2.608 1.5-4.5a8 8 0 0 0-8-8"/></g>
  </symbol>

  <symbol id="security">
    <path fill="currentColor" d="M14 16.59L11.41 14L10 15.41l4 4l8-8L20.59 10z" />
    <path fill="currentColor"
      d="m16 30l-6.176-3.293A10.98 10.98 0 0 1 4 17V4a2 2 0 0 1 2-2h20a2 2 0 0 1 2 2v13a10.98 10.98 0 0 1-5.824 9.707ZM6 4v13a8.99 8.99 0 0 0 4.766 7.942L16 27.733l5.234-2.79A8.99 8.99 0 0 0 26 17V4Z" />
  </symbol>

  <symbol id="reload">
    <path fill="none" stroke="currentColor" stroke-linecap="round" stroke-linejoin="round"
      stroke-width="2"
      d="M10 16H5v5m9-13h5V3M4.583 9.003a8 8 0 0 1 14.331-1.027m.504 7.021a8 8 0 0 1-14.332 1.027" />
  </symbol>

  <symbol id="search">
    <g fill="none" fill-rule="evenodd">
      <path
        d="m12.593 23.258l-.011.002l-.071.035l-.02.004l-.014-.004l-.071-.035q-.016-.005-.024.005l-.004.01l-.017.428l.005.02l.01.013l.104.074l.015.004l.012-.004l.104-.074l.012-.016l.004-.017l-.017-.427q-.004-.016-.017-.018m.265-.113l-.013.002l-.185.093l-.01.01l-.003.011l.018.43l.005.012l.008.007l.201.093q.019.005.029-.008l.004-.014l-.034-.614q-.005-.018-.02-.022m-.715.002a.02.02 0 0 0-.027.006l-.006.014l-.034.614q.001.018.017.024l.015-.002l.201-.093l.01-.008l.004-.011l.017-.43l-.003-.012l-.01-.01z" />
      <path fill="currentColor"
        d="M10.5 2a8.5 8.5 0 1 0 5.262 15.176l3.652 3.652a1 1 0 0 0 1.414-1.414l-3.652-3.652A8.5 8.5 0 0 0 10.5 2M4 10.5a6.5 6.5 0 1 1 13 0a6.5 6.5 0 0 1-13 0" />
    </g>
  </symbol>

  <symbol id="dashboard">
    <path fill="#fff"
      d="M13 9V3h8v6zM3 13V3h8v10zm10 8V11h8v10zM3 21v-6h8v6zm2-10h4V5H5zm10 8h4v-6h-4zm0-12h4V5h-4zM5 19h4v-2H5zm4-2" />
  </symbol>

  <symbol id="users">
    <path fill="currentColor"
      d="M125.18 156.94a64 64 0 1 0-82.36 0a100.23 100.23 0 0 0-39.49 32a12 12 0 0 0 19.35 14.2a76 76 0 0 1 122.64 0a12 12 0 0 0 19.36-14.2a100.33 100.33 0 0 0-39.5-32M44 108a40 40 0 1 1 40 40a40 40 0 0 1-40-40m206.1 97.67a12 12 0 0 1-16.78-2.57A76.31 76.31 0 0 0 172 172a12 12 0 0 1 0-24a40 40 0 1 0-10.3-78.67a12 12 0 1 1-6.16-23.19a64 64 0 0 1 57.64 110.8a100.23 100.23 0 0 1 39.49 32a12 12 0 0 1-2.57 16.73" />
  </symbol>

  <symbol id="barras">
    <path stroke-linecap="round" stroke-linejoin="round" stroke-width="2"
      d="M9 19v-6a2 2 0 00-2-2H5a2 2 0 00-2 2v6a2 2 0 002 2h2a2 2 0 002-2zm0 0V9a2 2 0 012-2h2a2 2 0 012 2v10m-6 0a2 2 0 002 2h2a2 2 0 002-2m0 0V5a2 2 0 012-2h2a2 2 0 012 2v14a2 2 0 01-2 2h-2a2 2 0 01-2-2z" />
  </symbol>

  <symbol id="report">
    <path stroke-linecap="round" stroke-linejoin="round" stroke-width="2"
      d="M9 12h6m-6 4h6m2 5H7a2 2 0 01-2-2V5a2 2 0 012-2h5.586a1 1 0 01.707.293l5.414 5.414a1 1 0 01.293.707V19a2 2 0 01-2 2z" />
  </symbol>

  <symbol id="history">
    <path stroke-linecap="round" stroke-linejoin="round" stroke-width="2"
      d="M12 8v4l3 3m6-3a9 9 0 11-18 0 9 9 0 0118 0z" />
  </symbol>

  <symbol id="world">
    <path stroke-linecap="round" stroke-linejoin="round" stroke-width="2"
      d="M3.055 11H5a2 2 0 012 2v1a2 2 0 002 2 2 2 0 012 2v2.945M8 3.935V5.5A2.5 2.5 0 0010.5 8h.5a2 2 0 012 2 2 2 0 104 0 2 2 0 012-2h1.064M15 20.488V18a2 2 0 012-2h3.064M21 12a9 9 0 11-18 0 9 9 0 0118 0z" />
  </symbol>

  <symbol id="emergency">
    <g fill="currentColor">
      <path
        d="M20.862 19.532a1 1 0 0 1 .868 1.116l-.904 7.238a1 1 0 0 1-1.985-.248l.905-7.238a1 1 0 0 1 1.116-.868" />
      <path fill-rule="evenodd"
        d="M9 6a3 3 0 0 0-3 3v30a3 3 0 0 0 3 3h30a3 3 0 0 0 3-3V9a3 3 0 0 0-3-3zm8.454 13.662c.195-1.656 1.392-3.048 3.035-3.332c2.55-.44 4.59-.437 7.041-.008c1.635.286 2.82 1.675 3.015 3.323L32 32H16zM15 36v-2h18v2zm-1.955-11a11 11 0 0 1 0-2H10v2zm.966-5.613a11 11 0 0 1 1.001-1.73l-2.636-1.523l-1 1.732zm3.645-4.375c.543-.383 1.122-.72 1.732-1.001l-1.522-2.635l-1.732 1zM23 13.045a11 11 0 0 1 2 0V10h-2zm5.613.966q.915.425 1.73 1.001l1.523-2.636l-1.732-1zm4.375 3.645c.383.543.72 1.122 1.001 1.732l2.635-1.522l-1-1.732zM34.955 23a11 11 0 0 1 0 2H38v-2z"
        clip-rule="evenodd" />
    </g>
  </symbol>

  <symbol id="call">
   <path fill="#ff2828" d="M20.01 15.38c-1.23 0-2.42-.2-3.53-.56a.98.98 0 0 0-1.01.24l-1.57 1.97c-2.83-1.35-5.48-3.9-6.89-6.83l1.95-1.66c.27-.28.35-.67.24-1.02c-.37-1.11-.56-2.3-.56-3.53c0-.54-.45-.99-.99-.99H4.19C3.65 3 3 3.24 3 3.99C3 13.28 10.73 21 20.01 21c.71 0 .99-.63.99-1.18v-3.45c0-.54-.45-.99-.99-.99"/>
  </symbol>

  <symbol id="hoja">
   <path fill="#00ff42" d="M11.25 22q-.825 0-1.662-.187t-1.713-.538q.3-3.025 1.75-5.65T13.35 11q-2.75 1.4-4.762 3.7t-2.813 5.25q-.1-.075-.187-.162L5.4 19.6q-1.175-1.175-1.787-2.625T3 13.95q0-1.7.675-3.25T5.55 7.95q2.025-2.025 5.25-2.637t9.05-.113q.45 5.975-.15 9.113t-2.6 5.137q-1.225 1.225-2.738 1.888T11.25 22"/>
  </symbol>
  <symbol id="gps">
    <g fill="none" stroke="currentColor" stroke-linecap="round" stroke-linejoin="round" stroke-width="2"><path d="M3 12a9 9 0 1 0 18 0a9 9 0 1 0-18 0"/><path d="m12 17l-1-4l-4-1l9-4z"/></g>
  </symbol>
    <symbol id="">
  </symbol>
    <symbol id="">
  </symbol>
    <symbol id="">
  </symbol>
    <symbol id="">
  </symbol>
    <symbol id="">
  </symbol>
    <symbol id="">
  </symbol>
    <symbol id="">
  </symbol>
  <symbol id="pdf">
   <path fill="#909090" d="m24.1 2.072l5.564 5.8v22.056H8.879V30h20.856V7.945z"/><path fill="#f4f4f4" d="M24.031 2H8.808v27.928h20.856V7.873z"/><path fill="#7a7b7c" d="M8.655 3.5h-6.39v6.827h20.1V3.5z"/><path fill="#dd2025" d="M22.472 10.211H2.395V3.379h20.077z"/><path fill="#464648" d="M9.052 4.534H7.745v4.8h1.028V7.715L9 7.728a2 2 0 0 0 .647-.117a1.4 1.4 0 0 0 .493-.291a1.2 1.2 0 0 0 .335-.454a2.1 2.1 0 0 0 .105-.908a2.2 2.2 0 0 0-.114-.644a1.17 1.17 0 0 0-.687-.65a2 2 0 0 0-.409-.104a2 2 0 0 0-.319-.026m-.189 2.294h-.089v-1.48h.193a.57.57 0 0 1 .459.181a.92.92 0 0 1 .183.558c0 .246 0 .469-.222.626a.94.94 0 0 1-.524.114m3.671-2.306c-.111 0-.219.008-.295.011L12 4.538h-.78v4.8h.918a2.7 2.7 0 0 0 1.028-.175a1.7 1.7 0 0 0 .68-.491a1.9 1.9 0 0 0 .373-.749a3.7 3.7 0 0 0 .114-.949a4.4 4.4 0 0 0-.087-1.127a1.8 1.8 0 0 0-.4-.733a1.6 1.6 0 0 0-.535-.4a2.4 2.4 0 0 0-.549-.178a1.3 1.3 0 0 0-.228-.017m-.182 3.937h-.1V5.392h.013a1.06 1.06 0 0 1 .6.107a1.2 1.2 0 0 1 .324.4a1.3 1.3 0 0 1 .142.526c.009.22 0 .4 0 .549a3 3 0 0 1-.033.513a1.8 1.8 0 0 1-.169.5a1.1 1.1 0 0 1-.363.36a.67.67 0 0 1-.416.106m5.08-3.915H15v4.8h1.028V7.434h1.3v-.892h-1.3V5.43h1.4v-.892"/><path fill="#dd2025" d="M21.781 20.255s3.188-.578 3.188.511s-1.975.646-3.188-.511m-2.357.083a7.5 7.5 0 0 0-1.473.489l.4-.9c.4-.9.815-2.127.815-2.127a14 14 0 0 0 1.658 2.252a13 13 0 0 0-1.4.288Zm-1.262-6.5c0-.949.307-1.208.546-1.208s.508.115.517.939a10.8 10.8 0 0 1-.517 2.434a4.4 4.4 0 0 1-.547-2.162Zm-4.649 10.516c-.978-.585 2.051-2.386 2.6-2.444c-.003.001-1.576 3.056-2.6 2.444M25.9 20.895c-.01-.1-.1-1.207-2.07-1.16a14 14 0 0 0-2.453.173a12.5 12.5 0 0 1-2.012-2.655a11.8 11.8 0 0 0 .623-3.1c-.029-1.2-.316-1.888-1.236-1.878s-1.054.815-.933 2.013a9.3 9.3 0 0 0 .665 2.338s-.425 1.323-.987 2.639s-.946 2.006-.946 2.006a9.6 9.6 0 0 0-2.725 1.4c-.824.767-1.159 1.356-.725 1.945c.374.508 1.683.623 2.853-.91a23 23 0 0 0 1.7-2.492s1.784-.489 2.339-.623s1.226-.24 1.226-.24s1.629 1.639 3.2 1.581s1.495-.939 1.485-1.035"/><path fill="#909090" d="M23.954 2.077V7.95h5.633z"/><path fill="#f4f4f4" d="M24.031 2v5.873h5.633z"/><path fill="#fff" d="M8.975 4.457H7.668v4.8H8.7V7.639l.228.013a2 2 0 0 0 .647-.117a1.4 1.4 0 0 0 .493-.291a1.2 1.2 0 0 0 .332-.454a2.1 2.1 0 0 0 .105-.908a2.2 2.2 0 0 0-.114-.644a1.17 1.17 0 0 0-.687-.65a2 2 0 0 0-.411-.105a2 2 0 0 0-.319-.026m-.189 2.294h-.089v-1.48h.194a.57.57 0 0 1 .459.181a.92.92 0 0 1 .183.558c0 .246 0 .469-.222.626a.94.94 0 0 1-.524.114m3.67-2.306c-.111 0-.219.008-.295.011l-.235.006h-.78v4.8h.918a2.7 2.7 0 0 0 1.028-.175a1.7 1.7 0 0 0 .68-.491a1.9 1.9 0 0 0 .373-.749a3.7 3.7 0 0 0 .114-.949a4.4 4.4 0 0 0-.087-1.127a1.8 1.8 0 0 0-.4-.733a1.6 1.6 0 0 0-.535-.4a2.4 2.4 0 0 0-.549-.178a1.3 1.3 0 0 0-.228-.017m-.182 3.937h-.1V5.315h.013a1.06 1.06 0 0 1 .6.107a1.2 1.2 0 0 1 .324.4a1.3 1.3 0 0 1 .142.526c.009.22 0 .4 0 .549a3 3 0 0 1-.033.513a1.8 1.8 0 0 1-.169.5a1.1 1.1 0 0 1-.363.36a.67.67 0 0 1-.416.106m5.077-3.915h-2.43v4.8h1.028V7.357h1.3v-.892h-1.3V5.353h1.4v-.892"/>
  </symbol>

  <symbol id="mapa">
  <path fill="none" stroke="currentColor" stroke-linecap="round" stroke-linejoin="round" stroke-width="2" d="M12 18.5L9 17l-6 3V7l6-3l6 3l6-3v7M9 4v13m6-10v5m6.121 8.121a3 3 0 1 0-4.242 0Q17.506 20.749 19 22q1.577-1.335 2.121-1.879M19 18v.01"/>
  </symbol>

  <symbol id="notification">
           <path stroke-linecap="round" stroke-linejoin="round" stroke-width="2"
              d="M15 17h5l-1.405-1.405A2.032 2.032 0 0118 14.158V11a6.002 6.002 0 00-4-5.659V5a2 2 0 10-4 0v.341C7.67 6.165 6 8.388 6 11v3.159c0 .538-.214 1.055-.595 1.436L4 17h5m6 0v1a3 3 0 11-6 0v-1m6 0H9" />
  </symbol>
    <symbol id="firecolor">
    <radialGradient id="notoFire0" cx="68.884" cy="124.296" r="70.587" gradientTransform="matrix(-1 -.00434 -.00713 1.6408 131.986 -79.345)" gradientUnits="userSpaceOnUse"><stop offset=".314" stop-color="#ff9800"/><stop offset=".662" stop-color="#ff6d00"/><stop offset=".972" stop-color="#f44336"/></radialGradient><path fill="url(#notoFire0)" d="M35.56 40.73c-.57 6.08-.97 16.84 2.62 21.42c0 0-1.69-11.82 13.46-26.65c6.1-5.97 7.51-14.09 5.38-20.18c-1.21-3.45-3.42-6.3-5.34-8.29c-1.12-1.17-.26-3.1 1.37-3.03c9.86.44 25.84 3.18 32.63 20.22c2.98 7.48 3.2 15.21 1.78 23.07c-.9 5.02-4.1 16.18 3.2 17.55c5.21.98 7.73-3.16 8.86-6.14c.47-1.24 2.1-1.55 2.98-.56c8.8 10.01 9.55 21.8 7.73 31.95c-3.52 19.62-23.39 33.9-43.13 33.9c-24.66 0-44.29-14.11-49.38-39.65c-2.05-10.31-1.01-30.71 14.89-45.11c1.18-1.08 3.11-.12 2.95 1.5"/><radialGradient id="notoFire1" cx="64.921" cy="54.062" r="73.86" gradientTransform="matrix(-.0101 .9999 .7525 .0076 26.154 -11.267)" gradientUnits="userSpaceOnUse"><stop offset=".214" stop-color="#fff176"/><stop offset=".328" stop-color="#fff27d"/><stop offset=".487" stop-color="#fff48f"/><stop offset=".672" stop-color="#fff7ad"/><stop offset=".793" stop-color="#fff9c4"/><stop offset=".822" stop-color="#fff8bd" stop-opacity="0.804"/><stop offset=".863" stop-color="#fff6ab" stop-opacity="0.529"/><stop offset=".91" stop-color="#fff38d" stop-opacity="0.209"/><stop offset=".941" stop-color="#fff176" stop-opacity="0"/></radialGradient><path fill="url(#notoFire1)" d="M76.11 77.42c-9.09-11.7-5.02-25.05-2.79-30.37c.3-.7-.5-1.36-1.13-.93c-3.91 2.66-11.92 8.92-15.65 17.73c-5.05 11.91-4.69 17.74-1.7 24.86c1.8 4.29-.29 5.2-1.34 5.36c-1.02.16-1.96-.52-2.71-1.23a16.1 16.1 0 0 1-4.44-7.6c-.16-.62-.97-.79-1.34-.28c-2.8 3.87-4.25 10.08-4.32 14.47C40.47 113 51.68 124 65.24 124c17.09 0 29.54-18.9 19.72-34.7c-2.85-4.6-5.53-7.61-8.85-11.88"/>
  </symbol>

</svg>
